<?xml version="1.0" encoding="utf-8"?>
<!-- Generator: Adobe Illustrator 23.0.5, SVG Export Plug-In . SVG Version: 6.00 Build 0)  -->
<svg version="1.1" id="Capa_1" xmlns="http://www.w3.org/2000/svg" xmlns:xlink="http://www.w3.org/1999/xlink" x="0px" y="0px"
	 viewBox="0 0 376 443.4" style="enable-background:new 0 0 376 443.4;" xml:space="preserve">
<style type="text/css">
	.st0{fill-rule:evenodd;clip-rule:evenodd;fill:url(#SVGID_1_);stroke:#022C51;stroke-width:9;stroke-miterlimit:10;}
	.st1{fill-rule:evenodd;clip-rule:evenodd;fill:url(#SVGID_2_);}
	.st2{fill-rule:evenodd;clip-rule:evenodd;fill:url(#SVGID_3_);}
	.st3{fill-rule:evenodd;clip-rule:evenodd;fill:#B2D638;}
	.st4{fill-rule:evenodd;clip-rule:evenodd;fill:url(#SVGID_4_);}
	.st5{fill-rule:evenodd;clip-rule:evenodd;fill:#1EB2FC;}
	.st6{fill-rule:evenodd;clip-rule:evenodd;fill:url(#SVGID_5_);}
</style>
<title>EquibraLogo</title>
<linearGradient id="SVGID_1_" gradientUnits="userSpaceOnUse" x1="134.6802" y1="239.5499" x2="274.2402" y2="453.9199" gradientTransform="matrix(1 0 0 -1 -11.46 597.48)">
	<stop  offset="0" style="stop-color:#1C98C5"/>
	<stop  offset="1" style="stop-color:#17395F"/>
</linearGradient>
<path class="st0" d="M28.3,398.4c0,0-32.5-171.9,82.4-232s236-94.6,255.1-148.2c0,0,28.9,185.7-43.8,277.6s-134.7,90.6-179.9,97.2
	S28.3,398.4,28.3,398.4z"/>
<linearGradient id="SVGID_2_" gradientUnits="userSpaceOnUse" x1="154.6871" y1="281.1626" x2="331.4972" y2="478.8426" gradientTransform="matrix(1 0 0 -1 -11.46 597.48)">
	<stop  offset="0" style="stop-color:#1E8BBE"/>
	<stop  offset="1" style="stop-color:#22558C"/>
</linearGradient>
<path class="st1" d="M50.2,388.6c0,0-28.3-149.7,71.7-202s241-92.5,244-168.4c0,0,3,201.1-60.2,281s-117.2,78.9-156.5,84.6
	S50.2,388.6,50.2,388.6z"/>
<linearGradient id="SVGID_3_" gradientUnits="userSpaceOnUse" x1="221.1288" y1="316.5544" x2="330.4987" y2="486.4243" gradientTransform="matrix(1 0 0 -1 -11.46 597.48)">
	<stop  offset="0" style="stop-color:#1FA2D3"/>
	<stop  offset="0.85" style="stop-color:#1F71A5"/>
</linearGradient>
<path class="st2" d="M85.6,388.6c0,0-25.6-135.7,64.9-183.1S345.8,117,360.8,74.8c0,0,13.5,160.4-43.8,232.9s-106.1,71.5-141.7,76.7
	S85.6,388.6,85.6,388.6z"/>
<path class="st3" d="M5.9,443.4c-0.3,2.4,24.9-95.9,204.9-131.8S381.6,77,365.9,18.2c0,0,16.1,137.5-168.6,233.8
	S10.9,401.5,5.9,443.4z"/>
<linearGradient id="SVGID_4_" gradientUnits="userSpaceOnUse" x1="121.6742" y1="272.2772" x2="297.2942" y2="413.2172" gradientTransform="matrix(1 0 0 -1 -11.46 597.48)">
	<stop  offset="0" style="stop-color:#409318"/>
	<stop  offset="1" style="stop-color:#98C927"/>
</linearGradient>
<path class="st4" d="M5.9,443.4c-0.3,2.4,29.1-95,209.2-131S381.6,77,365.9,18.2c0,0,20.4,138.3-164.3,234.6S10.9,401.5,5.9,443.4z"
	/>
<path class="st5" d="M6.2,442.8c0,0,12.8-36.4,111.8-44.4s276.6-67.5,255.4-304.3c0,0-15.3,165.2-140.9,209.6S53.1,348.8,6.2,442.8z
	"/>
<linearGradient id="SVGID_5_" gradientUnits="userSpaceOnUse" x1="287.9929" y1="351.2047" x2="118.9929" y2="258.0847" gradientTransform="matrix(1 0 0 -1 -11.46 597.48)">
	<stop  offset="0" style="stop-color:#409318"/>
	<stop  offset="1" style="stop-color:#A0CD2B"/>
</linearGradient>
<path class="st6" d="M5.9,443.4c0,0,13.7-29.6,112.7-37.6s273.2-63.7,255.7-319.6c0,0-15.6,180.5-141.3,224.9S46.5,353.4,5.9,443.4z
	"/>
</svg>
